<?xml version="1.0" standalone="no"?>
<!DOCTYPE svg PUBLIC "-//W3C//DTD SVG 20010904//EN"
 "http://www.w3.org/TR/2001/REC-SVG-20010904/DTD/svg10.dtd">
<svg version="1.0" xmlns="http://www.w3.org/2000/svg"
 width="400.000000pt" height="400.000000pt" viewBox="0 0 400.000000 400.000000"
 preserveAspectRatio="xMidYMid meet">

<g transform="translate(0.000000,400.000000) scale(0.100000,-0.100000)"
fill="#000000" stroke="none">
<path d="M1802 3384 c-305 -44 -582 -184 -795 -400 -216 -220 -349 -490 -392
-794 -19 -140 -19 -230 0 -370 73 -524 418 -950 915 -1130 236 -85 546 -103
785 -44 261 64 519 212 691 397 72 77 194 241 194 261 0 6 -33 29 -73 52 -183
103 -1113 637 -1120 643 -4 4 97 61 225 126 128 65 292 148 363 185 72 37 243
125 380 195 138 70 252 129 253 131 20 17 -132 238 -236 342 -48 48 -118 110
-156 139 -298 221 -676 319 -1034 267z"/>
</g>
</svg>
